<svg xmlns="http://www.w3.org/2000/svg" viewBox="0 0 1358.79 1177.79">
<path class="cls-1" d="M1187.17,623.55q-23.73-13.54-180.75-90.37c-96.15-47.95-155.65-94.89-179.24-140.58-12.3-24.6-18.33-49.71-18.33-75.31,0-34.39,11.5-56.9,28.83-80l89.39-82.13c51.13-48.5,89.6-75.26,115.88-80.28a117.93,117.93,0,0,1,28-3.58c31.06-10,47.79-26.76,50.41-50.41H777.75V71.31H927.07L389.51,560.37V71.31H538.83V20.9H10.58V71.31H159.91v1019H10.58v50.41H538.83c-7.4-31-24.13-47.78-50.41-50.41H389.51V646.14L448,593.58,610.71,445.66h0c17.32,69,63.59,122.66,146.19,172.87,16.81,8.78,78.07,39.66,184.26,91.88,98.15,48.19,158.9,95.39,182.25,142.33,12.3,23.35,18.58,48,18.58,73.56,0,78.07-36.4,131.79-109,160.66-28.87,12.31-61.25,18.58-96.9,18.58q-199.2,0-262.84-195.81c-11-36.9-18.33-77.07-21.59-120.5H591.45v351.45c27.87,0,44.43-8.53,50.21-25.1,2-10,3.26-25.86,3.26-46.94q130.29,85.47,306.27,85.35,205.61,0,316.31-107.19,76.82-75.31,76.81-184Q1344.31,720.45,1187.17,623.55Z"/>
<path class="cls-1" d="M1170.77,1140.7h1c0-.23,0-.23-.23-.47Z"/>
</svg>