<?xml version="1.0" standalone="no"?>
<!DOCTYPE svg PUBLIC "-//W3C//DTD SVG 20010904//EN"
 "http://www.w3.org/TR/2001/REC-SVG-20010904/DTD/svg10.dtd">
<svg version="1.0" xmlns="http://www.w3.org/2000/svg"
 width="1028.000000pt" height="1028.000000pt" viewBox="0 0 1028.000000 1028.000000"
 preserveAspectRatio="xMidYMid meet">
<metadata>
Created by potrace 1.11, written by Peter Selinger 2001-2013
</metadata>
<g transform="translate(0.000000,1028.000000) scale(0.100000,-0.100000)"
fill="#000000" stroke="none">
<path d="M6090 9432 l-205 -2 0 -190 0 -190 565 0 565 0 -28 -24 c-15 -13 -69
-62 -119 -107 -50 -46 -101 -93 -114 -104 -12 -11 -63 -58 -114 -105 -51 -47
-102 -93 -114 -103 -12 -10 -57 -51 -101 -92 -44 -40 -89 -82 -101 -92 -12
-10 -65 -58 -119 -108 -158 -144 -200 -183 -385 -350 -96 -87 -184 -168 -196
-179 -12 -12 -32 -30 -46 -42 -14 -12 -81 -72 -149 -135 -68 -62 -142 -129
-163 -149 -22 -19 -67 -60 -100 -90 -75 -70 -83 -77 -137 -125 -62 -55 -239
-217 -258 -235 -9 -9 -61 -56 -115 -105 -55 -50 -107 -97 -116 -105 -9 -8 -56
-51 -105 -95 -48 -44 -103 -93 -120 -110 -18 -16 -70 -64 -116 -105 -46 -41
-90 -82 -99 -90 -9 -8 -61 -55 -116 -105 -54 -49 -106 -96 -115 -105 -20 -20
-196 -180 -223 -203 -12 -10 -39 -35 -61 -55 -133 -122 -254 -232 -359 -327
-105 -95 -213 -194 -232 -212 -12 -13 -28 -24 -34 -25 -10 -2 -12 425 -13
1837 l0 1840 564 3 565 2 0 190 1 190 -1999 0 -1998 0 0 -190 0 -190 565 0
565 0 0 -3855 0 -3855 -565 0 -565 0 0 -190 0 -190 1996 0 1996 0 -7 38 c-10
60 -71 174 -120 224 -48 51 -147 104 -210 113 -22 3 -208 6 -412 6 -345 0
-373 1 -374 17 0 9 -1 766 -1 1681 l-1 1665 30 25 c28 24 146 130 216 194 17
16 62 56 100 90 87 77 112 100 162 146 22 21 92 84 155 141 63 57 120 109 126
114 6 6 51 47 99 91 49 44 100 91 114 104 14 12 59 53 100 90 40 36 88 80 106
96 17 17 72 66 120 110 89 80 141 127 267 243 71 65 88 74 88 44 0 -39 103
-308 134 -352 6 -8 20 -31 30 -50 117 -217 329 -447 605 -655 212 -161 340
-233 953 -538 328 -163 607 -301 620 -307 13 -5 30 -14 38 -19 8 -5 65 -34
125 -64 134 -67 244 -124 308 -160 26 -15 66 -38 90 -50 23 -13 71 -42 107
-65 36 -22 95 -59 131 -82 73 -45 258 -181 340 -250 95 -79 239 -232 294 -310
106 -151 184 -332 216 -505 14 -77 18 -305 7 -400 -23 -200 -91 -391 -195
-548 -63 -96 -208 -239 -313 -309 -163 -108 -306 -169 -575 -248 -30 -9 -191
-35 -275 -45 -54 -6 -325 -6 -395 0 -98 8 -161 15 -220 26 -33 5 -69 12 -80
14 -206 35 -488 150 -680 278 -149 100 -335 281 -442 431 -12 17 -26 36 -31
41 -54 66 -209 362 -259 495 -12 30 -33 85 -47 122 -14 37 -27 77 -30 90 -3
13 -17 68 -31 123 -15 55 -29 111 -31 125 -3 14 -13 68 -24 120 -10 52 -21
118 -24 145 -4 28 -11 73 -16 100 -5 28 -11 82 -14 120 -4 39 -9 89 -12 113
l-6 42 -227 -2 -226 -3 0 -1325 0 -1325 45 0 c111 -1 232 44 284 106 54 64 64
109 71 327 2 52 5 96 8 98 2 2 53 -26 113 -62 245 -149 516 -273 799 -365 86
-29 291 -86 338 -94 12 -3 47 -10 77 -17 30 -6 62 -12 70 -13 8 -1 42 -7 75
-13 33 -7 78 -14 100 -17 22 -4 51 -8 64 -10 14 -3 54 -7 90 -11 36 -3 74 -8
85 -10 130 -25 885 -25 1022 0 10 2 50 7 88 11 38 4 79 9 90 10 12 2 66 11
121 20 265 44 533 120 780 223 171 71 430 223 594 350 104 80 309 282 377 372
27 36 52 67 55 70 13 10 112 177 151 254 64 127 124 297 145 405 2 14 6 28 8
32 5 7 19 99 33 209 9 75 9 371 -1 445 -76 592 -423 1087 -1058 1511 -110 73
-261 153 -766 404 -345 172 -663 330 -706 351 -43 22 -117 60 -165 86 -83 44
-109 58 -219 119 -142 79 -480 305 -537 359 -6 5 -38 33 -70 60 -284 240 -439
492 -495 804 -18 99 -22 317 -7 386 45 210 140 371 307 525 57 52 110 102 119
110 9 8 39 35 66 60 27 25 101 93 164 151 63 58 129 118 145 133 17 15 73 67
125 115 80 75 206 185 285 250 19 16 149 112 210 156 142 102 310 165 479 180
180 16 360 137 419 280 46 111 54 105 -145 105 -95 0 -587 1 -1093 3 -506 1
-1012 1 -1125 -1z"/>
</g>
</svg>
